<?xml version="1.0" encoding="UTF-8" standalone="no"?>
<!-- Created with Inkscape (http://www.inkscape.org/) -->

<svg
   xmlns:dc="http://purl.org/dc/elements/1.1/"
   xmlns:cc="http://creativecommons.org/ns#"
   xmlns:rdf="http://www.w3.org/1999/02/22-rdf-syntax-ns#"
   xmlns:svg="http://www.w3.org/2000/svg"
   xmlns="http://www.w3.org/2000/svg"
   xmlns:sodipodi="http://sodipodi.sourceforge.net/DTD/sodipodi-0.dtd"
   xmlns:inkscape="http://www.inkscape.org/namespaces/inkscape"
   width="210mm"
   height="297mm"
   viewBox="0 0 210 297"
   version="1.1"
   id="svg3631"
   inkscape:version="0.92.4 (5da689c313, 2019-01-14)"
   sodipodi:docname="ornamental.svg">
  <defs
     id="defs3625">
    <clipPath
       clipPathUnits="userSpaceOnUse"
       id="clipPath18">
      <path
         d="M 0,600.949 H 847.559 V 0 H 0 Z"
         id="path16"
         inkscape:connector-curvature="0" />
    </clipPath>
    <linearGradient
       id="a"
       x1="104.73"
       x2="494.51999"
       y1="335.72"
       y2="895.84003"
       gradientUnits="userSpaceOnUse">
      <stop
         stop-color="#e00"
         offset="0"
         id="stop2" />
      <stop
         stop-color="#9a0000"
         offset="1"
         id="stop4" />
    </linearGradient>
  </defs>
  <sodipodi:namedview
     id="base"
     pagecolor="#ffffff"
     bordercolor="#666666"
     borderopacity="1.0"
     inkscape:pageopacity="0.0"
     inkscape:pageshadow="2"
     inkscape:zoom="0.74014904"
     inkscape:cx="537.31767"
     inkscape:cy="736.80566"
     inkscape:document-units="mm"
     inkscape:current-layer="g11993"
     showgrid="false"
     showguides="true"
     inkscape:guide-bbox="true"
     inkscape:window-width="1920"
     inkscape:window-height="1001"
     inkscape:window-x="-9"
     inkscape:window-y="-9"
     inkscape:window-maximized="1"
     inkscape:snap-global="false">
    <sodipodi:guide
       position="72.922013,252.88982"
       orientation="0,1"
       id="guide4178"
       inkscape:locked="false" />
    <sodipodi:guide
       position="99.099147,43.94019"
       orientation="0,1"
       id="guide4180"
       inkscape:locked="false" />
  </sodipodi:namedview>
  <metadata
     id="metadata3628">
    <rdf:RDF>
      <cc:Work
         rdf:about="">
        <dc:format>image/svg+xml</dc:format>
        <dc:type
           rdf:resource="http://purl.org/dc/dcmitype/StillImage" />
        <dc:title></dc:title>
      </cc:Work>
    </rdf:RDF>
  </metadata>
  <g
     inkscape:label="Layer 1"
     inkscape:groupmode="layer"
     id="layer1">
    <g
       id="g11993"
       transform="translate(0.01320793,-14.655723)">
      <path
         inkscape:connector-curvature="0"
         id="path11406"
         style="fill:#737251;fill-opacity:1;fill-rule:evenodd;stroke:none;stroke-width:0.35277775"
         d="m 139.13301,168.35022 c 0.28999,0.41381 0.3676,0.66075 0.50201,0.69815 3.8301,1.05551 7.62,2.32551 11.51149,3.06387 4.17971,0.7941 8.40246,1.37372 12.69647,1.5053 2.75166,0.0854 5.49204,0.16863 8.24054,0.03 1.51447,-0.0783 3.03706,-0.31115 4.54342,-0.23495 1.8736,0.0885 3.56799,-0.49988 5.24686,-1.11195 1.48837,-0.54434 2.46133,-1.75295 3.0099,-3.23039 0.35737,-0.96378 0.1644,-1.91311 -0.61701,-2.61091 -2.06445,-1.83973 -4.2866,-3.37008 -7.04638,-4.08022 -2.61302,-0.67381 -5.24827,-0.82056 -7.89234,-0.6156 -3.85939,0.29845 -7.70432,0.7934 -11.56053,1.16099 -6.49429,0.61736 -12.52679,2.76155 -18.63443,5.42572 m -37.48898,-6.86999 c -1.58045,-0.62442 -2.780597,-1.13277 -4.004737,-1.57375 -1.31656,-0.47484 -2.62995,-1.02199 -3.99097,-1.30139 -3.05259,-0.62548 -6.07413,-1.30034 -9.08191,-2.16606 -4.72617,-1.36278 -9.63859,-1.90288 -14.54644,-2.35585 -2.67194,-0.248 -5.28496,0.15064 -7.92727,0.35066 -2.89313,0.21872 -4.92054,1.69404 -6.59377,3.91372 -0.99307,1.31621 -0.85443,2.71921 -0.25294,4.03154 0.46567,1.01212 1.21391,1.95827 2.32586,2.41512 1.30952,0.53622 2.61973,1.13171 3.98357,1.48414 3.89961,1.01035 7.90434,0.61665 11.87097,0.70732 0.0924,0.004 0.18486,-0.0402 0.27729,-0.0505 1.60055,-0.17463 3.20251,-0.3422 4.80518,-0.51788 1.12183,-0.12594 2.25355,-0.20602 3.36515,-0.39194 3.73768,-0.63288 7.47853,-1.2453 11.19293,-1.97732 2.31987,-0.4579 4.60234,-1.1056 6.89116,-1.71344 0.479077,-0.12629 0.903817,-0.4505 1.685927,-0.85443 m 15.84289,0.0374 c 0.68192,0.37854 1.1296,0.72214 1.63583,0.89042 3.68371,1.23331 7.37694,2.43346 11.06664,3.64243 0.74613,0.24518 1.47708,0.25505 2.21933,-0.0631 3.74473,-1.59174 7.76146,-2.44828 11.40177,-4.3434 1.23649,-0.64276 2.69558,-0.87877 4.07035,-1.22379 1.37478,-0.34572 2.81799,-0.46849 4.15537,-0.91722 4.076,-1.3589 8.32732,-1.69827 12.53878,-2.26871 0.37465,-0.0497 0.75742,-0.067 1.12678,-0.15064 2.60879,-0.59619 5.23204,-0.42862 7.88634,-0.36442 3.23145,0.0794 6.11152,1.15605 9.02194,2.28882 0.60643,0.23495 5.06201,4.37021 5.40279,4.91349 1.70321,2.72274 1.58045,5.57671 0.52317,8.44797 -0.24836,0.66957 -0.80151,1.26788 -1.31974,1.79811 -1.84679,1.89124 -4.35716,2.59891 -6.66186,3.69358 -2.86596,1.35784 -5.90797,1.12395 -8.92951,1.19521 -3.71792,0.0875 -7.37129,-0.55245 -11.04053,-0.96802 -6.80085,-0.77117 -13.37733,-2.5527 -19.95417,-4.39067 -2.46239,-0.68862 -4.92054,-1.36984 -7.34377,-2.18722 -0.72002,-0.24271 -1.38395,-0.38947 -2.1971,-0.15381 -5.09976,1.47743 -10.08169,3.29035 -15.01352,5.24262 -2.90513,1.14971 -5.73898,2.48638 -8.65434,3.60963 -4.06188,1.56492 -8.158337,3.04517 -12.266787,4.48521 -2.76825,0.9712 -5.57918,1.82245 -8.37988,2.69523 -0.99025,0.30762 -1.99955,0.56444 -3.01378,0.77963 -6.47242,1.37866 -12.76068,3.48651 -19.24191,4.82495 -9.0163,1.8609 -18.08621,3.18029 -27.330403,3.22897 -5.280025,0.0258 -10.324394,-1.06362 -15.327136,-2.49977 -2.982736,-0.85549 -4.951942,-3.00179 -6.450541,-5.6187 -0.374298,-0.65652 -0.635353,-1.38606 -1.070328,-1.99425 -1.945217,-2.72768 -1.808692,-5.32871 -0.0071,-8.13929 1.310569,-2.04364 2.980619,-3.32387 5.255331,-3.97369 1.454855,-0.41804 2.879019,-0.0462 4.197702,0.3556 2.708275,0.82727 4.782961,2.59151 6.279092,5.02391 1.080558,1.75049 0.645936,5.45077 -1.535289,6.52639 -1.2192,0.60043 -2.332567,0.68192 -3.546828,0.30656 -1.307394,-0.40675 -2.154061,-1.05339 -3.941586,-2.93158 0.206728,-0.4258 0.316089,-1.0735 0.699911,-1.35078 0.582436,-0.42369 1.275292,-0.60502 2.125134,-0.34044 1.272116,0.39864 1.736019,0.17216 1.933927,-0.43038 0.256117,-0.77929 -0.232127,-1.2192 -0.698852,-1.71556 -0.963084,-1.01918 -2.047875,-1.1557 -3.370439,-0.7934 -1.337734,0.36759 -2.388659,1.12889 -3.396192,1.99461 -0.557389,0.47483 -0.615597,1.08867 -0.252942,1.80551 1.713089,3.38244 4.360334,5.94431 7.4041,8.08108 0.875595,0.61243 2.099734,0.77329 3.19017,1.02941 0.917222,0.21555 1.895122,0.16968 2.801055,0.41063 3.464631,0.92005 6.956425,0.7553 10.4648,0.41381 1.886304,-0.18486 3.776134,-0.35278 5.659964,-0.54434 5.02003,-0.50588 9.82239,-1.97837 14.66462,-3.29 5.01721,-1.36067 10.08168,-2.53753 15.10877,-3.85727 3.11608,-0.81739 6.22829,-1.66582 9.29216,-2.65607 3.32776,-1.07562 6.69608,-1.96603 10.1025,-2.75943 1.4672,-0.34148 2.8762,-0.93203 4.304947,-1.43121 0.895,-0.31433 1.7586,-0.73519 2.66841,-0.98708 2.20028,-0.60642 4.28096,-1.49966 6.37364,-2.39218 2.2606,-0.96379 4.62244,-1.69616 6.91938,-2.5781 2.03447,-0.77999 4.04495,-1.62243 6.05649,-2.45675 0.32632,-0.13582 0.60819,-0.37183 0.8636,-0.52881 -0.0191,-0.83115 -0.647,-0.70767 -1.01741,-0.89641 -2.64689,-1.34056 -5.51004,-2.00554 -8.36225,-2.70827 -1.18992,-0.29422 -2.34562,-0.72532 -3.52778,-1.04952 -1.09537,-0.30127 -2.17311,-0.43003 -3.33904,-0.10266 -7.28768,2.0447 -14.592647,3.99098 -22.099047,5.15409 -3.3581,0.51893 -6.70031,1.18286 -10.08522,1.49401 -2.44863,0.22578 -4.89796,0.2219 -7.35329,-0.22401 -2.04435,-0.37148 -4.16137,-0.33126 -6.20713,-0.69956 -1.66194,-0.30057 -3.3267,-0.78881 -4.88139,-1.45345 -3.05893,-1.30951 -4.96887,-3.7786 -5.97111,-6.87705 -0.56939,-1.76353 -0.26494,-3.57117 0.61877,-5.2398 1.47214,-2.77883 3.76661,-4.74028 6.43784,-6.26851 3.09316,-1.77447 6.54262,-2.54776 10.03053,-2.8007 2.23802,-0.16264 4.56177,0.1524 6.78356,0.58631 3.89291,0.7613 7.79357,1.58009 11.58452,2.7305 6.15597,1.86796 12.35322,3.6442 18.323977,6.09177 1.31445,0.53622 2.65042,1.02517 3.96699,1.56245 1.02905,0.42086 1.98332,0.2854 3.03142,-0.0621 7.11517,-2.36784 13.88675,-5.51427 20.60187,-8.81239 3.55494,-1.74801 7.07778,-3.59092 10.92306,-4.69864 1.35078,-0.38665 2.65006,-1.02623 3.89713,-1.69722 3.25579,-1.74307 6.77263,-2.85009 10.17094,-4.25062 2.18122,-0.89782 4.41678,-1.67922 6.55567,-2.67052 1.99743,-0.92358 4.17265,-1.20686 6.20924,-1.96604 0.7941,-0.29845 1.67287,-0.40957 2.42887,-0.78351 2.48991,-1.23508 5.13398,-1.84644 7.84437,-2.40277 2.33574,-0.48049 4.66055,-0.82586 7.01252,-0.76059 5.17384,0.14675 9.531,4.48804 9.50701,9.09672 -0.0222,3.83682 -1.51836,6.74441 -4.52614,8.98349 -0.37959,0.28434 -0.75424,0.5715 -1.14089,0.84561 -0.30832,0.21907 -0.60148,0.52634 -0.94721,0.61665 -2.03835,0.52705 -4.14513,0.69286 -6.15985,0.13653 -1.69897,-0.46778 -2.74955,-1.82774 -3.5941,-3.42441 -0.91263,-1.73038 -1.05621,-3.40643 -0.44062,-5.19183 0.81033,-2.35797 3.30976,-3.34116 5.52345,-2.13396 0.7306,0.40076 1.41887,0.95074 1.99495,1.55752 1.01741,1.06927 0.80575,2.20098 -0.47378,3.02542 -0.39264,0.24906 -0.82056,0.44309 -1.25518,0.67416 -0.40464,-0.25294 -0.76941,-0.59549 -1.19309,-0.70873 -0.28717,-0.0787 -0.73908,0.079 -0.97826,0.29104 -0.31856,0.2801 -0.11959,1.00224 0.26317,1.23296 1.28729,0.77752 2.667,1.04245 4.08023,0.46602 1.98332,-0.80645 3.54295,-2.10503 4.5653,-4.05201 1.32644,-2.53083 0.24306,-6.7885 -3.98074,-7.08378 -2.06164,-0.14534 -4.19277,-0.0794 -6.22724,0.27305 -4.11445,0.71332 -8.03381,2.19005 -11.90836,3.71757 -2.01719,0.79446 -3.93454,1.86479 -5.85859,2.88432 -2.59609,1.37407 -5.31036,2.44228 -8.04686,3.49885 -2.82504,1.08937 -5.56436,2.39712 -8.33896,3.6202 -5.02249,2.21121 -9.9568,4.62527 -15.26151,6.14186 -1.2693,0.3623 -2.47227,0.9592 -3.69747,1.47214 -3.57681,1.50143 -7.15398,3.00285 -10.71703,4.53496 -0.39864,0.1711 -0.71297,0.53834 -1.23614,0.94721" />
    </g>
  </g>
</svg>
